<?xml version="1.0" encoding="UTF-8" standalone="no"?>
<!-- Created with Inkscape (http://www.inkscape.org/) -->

<svg
   xmlns:dc="http://purl.org/dc/elements/1.1/"
   xmlns:cc="http://creativecommons.org/ns#"
   xmlns:rdf="http://www.w3.org/1999/02/22-rdf-syntax-ns#"
   xmlns:svg="http://www.w3.org/2000/svg"
   xmlns="http://www.w3.org/2000/svg"
   version="1.1"
   width="710"
   height="460"
   viewBox="0 0 568 368"
   id="svg2">
  <metadata
     id="metadata259">
    <rdf:RDF>
      <cc:Work
         rdf:about="">
        <dc:format>image/svg+xml</dc:format>
        <dc:type
           rdf:resource="http://purl.org/dc/dcmitype/StillImage" />
        <dc:title></dc:title>
      </cc:Work>
    </rdf:RDF>
  </metadata>
  <defs
     id="defs257" />
  <g
     transform="translate(0,5)"
     id="surface1"
     style="opacity:0.7">
    <path
       d="M 12.96875,349.46875 C 28.074219,262.1875 38.898438,169.32812 67.179688,84.859375 c 31.171874,-93.09375 54.140622,17.687505 65.097652,53.933595 11.35547,37.55859 23.17578,74.97656 34.3086,112.60156 26.53515,89.67578 79.27343,-25.28906 92.18359,-45.57031 11.75,-18.46485 20.9375,-43.69922 69.79688,-48.28906 70.29687,-6.60547 177.05468,-4.84766 224.85937,-5.77344"
       id="path5"
       style="fill:none;stroke:#eb1923;stroke-width:5;stroke-linecap:butt;stroke-linejoin:miter;stroke-miterlimit:4;stroke-opacity:1" />
    <path
       d="m 118.875,45.523438 c 0.86719,-0.167969 2,-0.289063 3.44531,-0.289063 1.77344,0 3.07422,0.410156 3.89844,1.152344 0.76172,0.660156 1.23438,1.671875 1.23438,2.910156 0,1.257813 -0.36719,2.246094 -1.08985,2.96875 -0.94922,1.011719 -2.49609,1.527344 -4.25,1.527344 -0.53515,0 -1.03125,-0.02344 -1.4414,-0.125 l 0,5.566406 -1.79688,0 z m 1.79688,6.679687 c 0.39062,0.105469 0.90625,0.144531 1.48437,0.144531 2.1875,0 3.48438,-1.070312 3.48438,-2.949218 0,-1.855469 -1.29688,-2.742188 -3.27735,-2.742188 -0.78515,0 -1.38281,0.08203 -1.6914,0.144531 z m 0,0"
       id="path7"
       style="fill:#000000;fill-opacity:1;fill-rule:nonzero;stroke:none" />
    <path
       d="m 130.30469,54.554688 c 0.043,2.453124 1.58593,3.464843 3.40234,3.464843 1.30078,0 2.10547,-0.226562 2.76563,-0.496093 l 0.32812,1.28125 c -0.64062,0.289062 -1.75391,0.636718 -3.33984,0.636718 -3.05469,0 -4.91016,-2.039062 -4.91016,-5.03125 0,-3.03125 1.79297,-5.402344 4.70313,-5.402344 3.25781,0 4.10156,2.867188 4.10156,4.703126 0,0.371093 -0.0195,0.660156 -0.0586,0.863281 z m 5.30078,-1.296876 c 0.0195,-1.136718 -0.47656,-2.949218 -2.4961,-2.949218 -1.85546,0 -2.64062,1.6875 -2.78515,2.949218 z m 0,0"
       id="path9"
       style="fill:#000000;fill-opacity:1;fill-rule:nonzero;stroke:none" />
    <path
       d="m 146.63672,56.84375 c 0,0.867188 0.043,1.710938 0.14453,2.394531 l -1.62891,0 -0.16406,-1.257812 -0.0625,0 c -0.53516,0.78125 -1.62891,1.484375 -3.05078,1.484375 -2.02344,0 -3.05469,-1.425782 -3.05469,-2.867188 0,-2.414062 2.14453,-3.734375 6.00391,-3.710937 l 0,-0.207031 c 0,-0.828126 -0.22656,-2.332032 -2.26953,-2.3125 -0.94922,0 -1.91797,0.269531 -2.6211,0.742187 l -0.41015,-1.214844 c 0.82422,-0.515625 2.03906,-0.867187 3.29687,-0.867187 3.07422,0 3.81641,2.082031 3.81641,4.082031 z m -1.77344,-2.699219 c -1.98047,-0.04297 -4.22656,0.308594 -4.22656,2.246094 0,1.195313 0.78515,1.730469 1.6914,1.730469 1.32032,0 2.16407,-0.824219 2.45313,-1.667969 0.0625,-0.1875 0.082,-0.390625 0.082,-0.578125 z m 0,0"
       id="path11"
       style="fill:#000000;fill-opacity:1;fill-rule:nonzero;stroke:none" />
    <path
       d="m 151.35937,53.832031 0.043,0 c 0.25,-0.351562 0.57813,-0.804687 0.86719,-1.132812 l 2.94922,-3.445313 2.16406,0 -3.85547,4.105469 4.39453,5.875 -2.20703,0 -3.42578,-4.804687 -0.92969,1.050781 0,3.753906 -1.8125,0 0,-14.640625 1.8125,0 z m 0,0"
       id="path13"
       style="fill:#000000;fill-opacity:1;fill-rule:nonzero;stroke:none" />
    <path
       d="m 167.65234,59.464844 c -2.67968,0 -4.78515,-1.980469 -4.78515,-5.136719 0,-3.339844 2.20703,-5.300781 4.94922,-5.300781 2.86718,0 4.80859,2.082031 4.80859,5.117187 0,3.710938 -2.57813,5.320313 -4.94922,5.320313 z m 0.0625,-1.363282 c 1.73047,0 3.03125,-1.628906 3.03125,-3.898437 0,-1.6875 -0.84375,-3.8125 -2.98828,-3.8125 -2.125,0 -3.05469,1.980469 -3.05469,3.875 0,2.1875 1.23829,3.835937 2.99219,3.835937 z m 0,0"
       id="path15"
       style="fill:#000000;fill-opacity:1;fill-rule:nonzero;stroke:none" />
    <path
       d="m 175.07812,59.238281 0,-8.601562 -1.38281,0 0,-1.382813 1.38281,0 0,-0.472656 c 0,-1.402344 0.32813,-2.683594 1.17579,-3.484375 0.67968,-0.660156 1.58984,-0.929687 2.41406,-0.929687 0.66015,0 1.19531,0.144531 1.54687,0.289062 l -0.22656,1.402344 c -0.28906,-0.125 -0.64062,-0.226563 -1.17578,-0.226563 -1.52734,0 -1.94141,1.359375 -1.94141,2.886719 l 0,0.535156 2.41407,0 0,1.382813 -2.39063,0 0,8.601562 z m 0,0"
       id="path17"
       style="fill:#000000;fill-opacity:1;fill-rule:nonzero;stroke:none" />
    <path
       d="m 187.16406,45.335938 0,13.902343 -1.8164,0 0,-13.902343 z m 0,0"
       id="path19"
       style="fill:#000000;fill-opacity:1;fill-rule:nonzero;stroke:none" />
    <path
       d="m 190.23437,51.957031 c 0,-1.050781 -0.0195,-1.878906 -0.082,-2.703125 l 1.60938,0 0.10156,1.628906 0.043,0 c 0.49609,-0.925781 1.65234,-1.855468 3.30078,-1.855468 1.38281,0 3.52734,0.824218 3.52734,4.25 l 0,5.960937 -1.8164,0 0,-5.753906 c 0,-1.609375 -0.59766,-2.972656 -2.3086,-2.972656 -1.17578,0 -2.10546,0.847656 -2.43359,1.855469 -0.082,0.230468 -0.125,0.558593 -0.125,0.847656 l 0,6.019531 -1.81641,0 z m 0,0"
       id="path21"
       style="fill:#000000;fill-opacity:1;fill-rule:nonzero;stroke:none" />
    <path
       d="m 201.84766,59.238281 0,-8.601562 -1.38282,0 0,-1.382813 1.38282,0 0,-0.472656 c 0,-1.402344 0.32812,-2.683594 1.17578,-3.484375 0.67968,-0.660156 1.58593,-0.929687 2.41406,-0.929687 0.66016,0 1.19531,0.144531 1.54687,0.289062 l -0.22656,1.402344 c -0.28906,-0.125 -0.64062,-0.226563 -1.17969,-0.226563 -1.52343,0 -1.9375,1.359375 -1.9375,2.886719 l 0,0.535156 2.41407,0 0,1.382813 -2.39453,0 0,8.601562 z m 0,0"
       id="path23"
       style="fill:#000000;fill-opacity:1;fill-rule:nonzero;stroke:none" />
    <path
       d="m 207.70312,44.59375 1.81641,0 0,14.644531 -1.81641,0 z m 0,0"
       id="path25"
       style="fill:#000000;fill-opacity:1;fill-rule:nonzero;stroke:none" />
    <path
       d="m 219.5625,56.84375 c 0,0.867188 0.043,1.710938 0.14453,2.394531 l -1.62891,0 -0.16406,-1.257812 -0.0625,0 c -0.53515,0.78125 -1.6289,1.484375 -3.05078,1.484375 -2.02344,0 -3.05469,-1.425782 -3.05469,-2.867188 0,-2.414062 2.14453,-3.734375 6,-3.710937 l 0,-0.207031 c 0,-0.828126 -0.22656,-2.332032 -2.26562,-2.3125 -0.94922,0 -1.91797,0.269531 -2.6211,0.742187 l -0.41406,-1.214844 c 0.82813,-0.515625 2.04297,-0.867187 3.30078,-0.867187 3.07422,0 3.81641,2.082031 3.81641,4.082031 z m -1.77344,-2.699219 c -1.98047,-0.04297 -4.22656,0.308594 -4.22656,2.246094 0,1.195313 0.78516,1.730469 1.69141,1.730469 1.32031,0 2.16406,-0.824219 2.45312,-1.667969 0.0625,-0.1875 0.082,-0.390625 0.082,-0.578125 z m 0,0"
       id="path27"
       style="fill:#000000;fill-opacity:1;fill-rule:nonzero;stroke:none" />
    <path
       d="m 224.57812,46.863281 0,2.390625 2.59766,0 0,1.382813 -2.59766,0 0,5.382812 c 0,1.238281 0.35157,1.9375 1.35938,1.9375 0.49609,0 0.78516,-0.03906 1.05078,-0.121093 l 0.082,1.378906 c -0.34765,0.125 -0.90625,0.25 -1.60547,0.25 -0.84765,0 -1.52734,-0.289063 -1.96093,-0.765625 -0.49219,-0.554688 -0.69922,-1.441407 -0.69922,-2.617188 l 0,-5.445312 -1.54688,0 0,-1.382813 1.54688,0 0,-1.835937 z m 0,0"
       id="path29"
       style="fill:#000000;fill-opacity:1;fill-rule:nonzero;stroke:none" />
    <path
       d="m 230.12891,54.554688 c 0.0391,2.453124 1.58593,3.464843 3.40234,3.464843 1.29687,0 2.10156,-0.226562 2.76172,-0.496093 l 0.33203,1.28125 c -0.64063,0.289062 -1.75391,0.636718 -3.34375,0.636718 -3.05078,0 -4.90625,-2.039062 -4.90625,-5.03125 0,-3.03125 1.79297,-5.402344 4.69922,-5.402344 3.26172,0 4.10547,2.867188 4.10547,4.703126 0,0.371093 -0.0195,0.660156 -0.0625,0.863281 z m 5.30078,-1.296876 c 0.0195,-1.136718 -0.47657,-2.949218 -2.4961,-2.949218 -1.85937,0 -2.64062,1.6875 -2.78515,2.949218 z m 0,0"
       id="path31"
       style="fill:#000000;fill-opacity:1;fill-rule:nonzero;stroke:none" />
    <path
       d="m 248.05078,44.59375 0,12.066406 c 0,0.886719 0.0195,1.894532 0.082,2.578125 l -1.6289,0 -0.082,-1.734375 -0.043,0 c -0.5586,1.113282 -1.75391,1.960938 -3.38282,1.960938 -2.41015,0 -4.28906,-2.042969 -4.28906,-5.074219 -0.0195,-3.339844 2.0625,-5.363281 4.47656,-5.363281 1.54688,0 2.57813,0.722656 3.01172,1.503906 l 0.0391,0 0,-5.9375 z m -1.81641,8.722656 c 0,-0.246094 -0.0195,-0.535156 -0.082,-0.78125 -0.26953,-1.136718 -1.25781,-2.085937 -2.62109,-2.085937 -1.875,0 -2.99219,1.652343 -2.99219,3.835937 0,2.042969 1.01172,3.714844 2.94922,3.714844 1.21875,0 2.33203,-0.824219 2.66406,-2.167969 0.0625,-0.246093 0.082,-0.492187 0.082,-0.78125 z m 0,0"
       id="path33"
       style="fill:#000000;fill-opacity:1;fill-rule:nonzero;stroke:none" />
    <path
       d="m 262.67187,52.71875 -5.38281,0 0,5.011719 6.01953,0 0,1.507812 -7.83593,0 0,-13.902343 7.52734,0 0,1.507812 -5.71094,0 0,4.390625 5.38281,0 z m 0,0"
       id="path35"
       style="fill:#000000;fill-opacity:1;fill-rule:nonzero;stroke:none" />
    <path
       d="m 266.42578,49.253906 1.42188,2.125 c 0.37109,0.578125 0.67968,1.074219 1.01171,1.628906 l 0.0625,0 c 0.32813,-0.578124 0.65625,-1.09375 1.00782,-1.628906 l 1.38281,-2.125 1.98047,0 -3.40235,4.828125 3.48438,5.15625 -2.0625,0 -1.46484,-2.25 c -0.39063,-0.578125 -0.71875,-1.132812 -1.07032,-1.730469 l -0.043,0 c -0.32812,0.597657 -0.67968,1.132813 -1.05078,1.730469 l -1.44531,2.25 -2,0 3.54688,-5.09375 -3.38282,-4.890625 z m 0,0"
       id="path37"
       style="fill:#000000;fill-opacity:1;fill-rule:nonzero;stroke:none" />
    <path
       d="m 275.12891,52.511719 c 0,-1.277344 -0.0234,-2.308594 -0.082,-3.257813 l 1.62891,0 0.10156,1.710938 0.043,0 c 0.71875,-1.234375 1.91797,-1.9375 3.52735,-1.9375 2.42968,0 4.24609,2.042968 4.24609,5.074218 0,3.589844 -2.20703,5.363282 -4.53516,5.363282 -1.33984,0 -2.47656,-0.578125 -3.07422,-1.570313 l -0.043,0 0,5.425781 -1.8125,0 z m 1.8125,2.664062 c 0,0.246094 0.0234,0.515625 0.0859,0.742188 0.3086,1.257812 1.42188,2.121093 2.69922,2.121093 1.91797,0 3.03125,-1.566406 3.03125,-3.855468 0,-2 -1.03125,-3.710938 -2.94922,-3.710938 -1.23437,0 -2.41015,0.867188 -2.76172,2.226563 -0.043,0.25 -0.10546,0.515625 -0.10546,0.742187 z m 0,0"
       id="path39"
       style="fill:#000000;fill-opacity:1;fill-rule:nonzero;stroke:none" />
    <path
       d="m 287.91406,54.554688 c 0.0391,2.453124 1.58985,3.464843 3.40235,3.464843 1.30078,0 2.10546,-0.226562 2.76171,-0.496093 l 0.33204,1.28125 c -0.64063,0.289062 -1.75391,0.636718 -3.33985,0.636718 -3.05469,0 -4.91015,-2.039062 -4.91015,-5.03125 0,-3.03125 1.79296,-5.402344 4.70312,-5.402344 3.25781,0 4.10547,2.867188 4.10547,4.703126 0,0.371093 -0.0234,0.660156 -0.0625,0.863281 z m 5.30078,-1.296876 c 0.0195,-1.136718 -0.47656,-2.949218 -2.49609,-2.949218 -1.85547,0 -2.64063,1.6875 -2.78516,2.949218 z m 0,0"
       id="path41"
       style="fill:#000000;fill-opacity:1;fill-rule:nonzero;stroke:none" />
    <path
       d="m 304.33203,58.886719 c -0.47656,0.226562 -1.52734,0.578125 -2.86719,0.578125 -3.01172,0 -4.97265,-2.042969 -4.97265,-5.117188 0,-3.070312 2.10547,-5.320312 5.36328,-5.320312 1.07422,0 2.02344,0.269531 2.51562,0.535156 l -0.41015,1.382812 c -0.4336,-0.226562 -1.11328,-0.472656 -2.10547,-0.472656 -2.28906,0 -3.52735,1.710938 -3.52735,3.792969 0,2.3125 1.48438,3.734375 3.46485,3.734375 1.03125,0 1.71484,-0.246094 2.23047,-0.476562 z m 0,0"
       id="path43"
       style="fill:#000000;fill-opacity:1;fill-rule:nonzero;stroke:none" />
    <path
       d="m 308.90625,46.863281 0,2.390625 2.60156,0 0,1.382813 -2.60156,0 0,5.382812 c 0,1.238281 0.35156,1.9375 1.36328,1.9375 0.49219,0 0.78125,-0.03906 1.05078,-0.121093 l 0.082,1.378906 c -0.35156,0.125 -0.90625,0.25 -1.60937,0.25 -0.84375,0 -1.52344,-0.289063 -1.95703,-0.765625 -0.4961,-0.554688 -0.70313,-1.441407 -0.70313,-2.617188 l 0,-5.445312 -1.54687,0 0,-1.382813 1.54687,0 0,-1.835937 z m 0,0"
       id="path45"
       style="fill:#000000;fill-opacity:1;fill-rule:nonzero;stroke:none" />
    <path
       d="m 320.57812,56.84375 c 0,0.867188 0.043,1.710938 0.14844,2.394531 l -1.6289,0 -0.16797,-1.257812 -0.0625,0 c -0.53516,0.78125 -1.62891,1.484375 -3.05078,1.484375 -2.01954,0 -3.05079,-1.425782 -3.05079,-2.867188 0,-2.414062 2.14454,-3.734375 6,-3.710937 l 0,-0.207031 c 0,-0.828126 -0.22656,-2.332032 -2.26953,-2.3125 -0.94922,0 -1.91797,0.269531 -2.61718,0.742187 l -0.41407,-1.214844 c 0.82422,-0.515625 2.04297,-0.867187 3.30078,-0.867187 3.07422,0 3.8125,2.082031 3.8125,4.082031 z m -1.76953,-2.699219 c -1.98047,-0.04297 -4.23047,0.308594 -4.23047,2.246094 0,1.195313 0.78516,1.730469 1.69141,1.730469 1.32031,0 2.16406,-0.824219 2.45313,-1.667969 0.0625,-0.1875 0.082,-0.390625 0.082,-0.578125 l 0,-1.730469 z m 0,0"
       id="path47"
       style="fill:#000000;fill-opacity:1;fill-rule:nonzero;stroke:none" />
    <path
       d="m 325.59375,46.863281 0,2.390625 2.59766,0 0,1.382813 -2.59766,0 0,5.382812 c 0,1.238281 0.35156,1.9375 1.35937,1.9375 0.4961,0 0.78516,-0.03906 1.05469,-0.121093 l 0.082,1.378906 c -0.35156,0.125 -0.90625,0.25 -1.60937,0.25 -0.84375,0 -1.52344,-0.289063 -1.95703,-0.765625 -0.4961,-0.554688 -0.70313,-1.441407 -0.70313,-2.617188 l 0,-5.445312 -1.54687,0 0,-1.382813 1.54687,0 0,-1.835937 z m 0,0"
       id="path49"
       style="fill:#000000;fill-opacity:1;fill-rule:nonzero;stroke:none" />
    <path
       d="m 331.10156,47.417969 c -0.67969,0 -1.13672,-0.535157 -1.13672,-1.175781 0,-0.636719 0.47657,-1.152344 1.17578,-1.152344 0.70313,0 1.15625,0.515625 1.15625,1.152344 0,0.640624 -0.45312,1.175781 -1.17578,1.175781 z m -0.86719,11.820312 0,-9.984375 1.8125,0 0,9.984375 z m 0,0"
       id="path51"
       style="fill:#000000;fill-opacity:1;fill-rule:nonzero;stroke:none" />
    <path
       d="m 339.12109,59.464844 c -2.67968,0 -4.78125,-1.980469 -4.78125,-5.136719 0,-3.339844 2.20703,-5.300781 4.94922,-5.300781 2.86719,0 4.80469,2.082031 4.80469,5.117187 0,3.710938 -2.57813,5.320313 -4.94922,5.320313 z m 0.0664,-1.363282 c 1.73047,0 3.03125,-1.628906 3.03125,-3.898437 0,-1.6875 -0.84766,-3.8125 -2.99219,-3.8125 -2.125,0 -3.05078,1.980469 -3.05078,3.875 0,2.1875 1.23438,3.835937 2.98828,3.835937 z m 0,0"
       id="path53"
       style="fill:#000000;fill-opacity:1;fill-rule:nonzero;stroke:none" />
    <path
       d="m 346.38281,51.957031 c 0,-1.050781 -0.0195,-1.878906 -0.082,-2.703125 l 1.60938,0 0.10156,1.628906 0.043,0 c 0.49218,-0.925781 1.64843,-1.855468 3.29687,-1.855468 1.38281,0 3.52735,0.824218 3.52735,4.25 l 0,5.960937 -1.8125,0 0,-5.753906 c 0,-1.609375 -0.59766,-2.972656 -2.3125,-2.972656 -1.17579,0 -2.10157,0.847656 -2.4336,1.855469 -0.082,0.230468 -0.125,0.558593 -0.125,0.847656 l 0,6.019531 -1.8125,0 z m 0,0"
       id="path55"
       style="fill:#000000;fill-opacity:1;fill-rule:nonzero;stroke:none" />
    <path
       d="m 357.58203,57.402344 c 0.55469,0.328125 1.50391,0.699218 2.41016,0.699218 1.30078,0 1.91797,-0.636718 1.91797,-1.484374 0,-0.867188 -0.51563,-1.339844 -1.83204,-1.835938 -1.8164,-0.660156 -2.66406,-1.628906 -2.66406,-2.824219 0,-1.609375 1.32031,-2.929687 3.44531,-2.929687 1.01172,0 1.89844,0.269531 2.4336,0.617187 l -0.4336,1.300781 c -0.39062,-0.226562 -1.11328,-0.578124 -2.03906,-0.578124 -1.07422,0 -1.65234,0.621093 -1.65234,1.363281 0,0.84375 0.57812,1.214843 1.8789,1.710937 1.71094,0.636719 2.61719,1.503906 2.61719,3.011719 0,1.773437 -1.38281,3.011719 -3.71094,3.011719 -1.09375,0 -2.10546,-0.289063 -2.80468,-0.703125 z m 0,0"
       id="path57"
       style="fill:#000000;fill-opacity:1;fill-rule:nonzero;stroke:none" />
    <path
       d="m 310.49609,128.40625 c 0.86328,-0.16406 2,-0.28906 3.44141,-0.28906 1.77344,0 3.07422,0.41406 3.89844,1.15625 0.76562,0.66015 1.23828,1.67187 1.23828,2.91015 0,1.25782 -0.3711,2.2461 -1.09375,2.96875 -0.94922,1.01172 -2.4961,1.52735 -4.25,1.52735 -0.53516,0 -1.03125,-0.0234 -1.44141,-0.125 l 0,5.5664 -1.79687,0 0,-13.71484 z m 1.79297,6.68359 c 0.39063,0.10157 0.90625,0.14453 1.48438,0.14453 2.1875,0 3.48437,-1.07421 3.48437,-2.94921 0,-1.85547 -1.29687,-2.74219 -3.27734,-2.74219 -0.78516,0 -1.38281,0.082 -1.69141,0.14453 z m 0,0"
       id="path59"
       style="fill:#000000;fill-opacity:1;fill-rule:nonzero;stroke:none" />
    <path
       d="m 321.30469,127.48047 1.8125,0 0,14.64062 -1.8125,0 z m 0,0"
       id="path61"
       style="fill:#000000;fill-opacity:1;fill-rule:nonzero;stroke:none" />
    <path
       d="m 333.16406,139.73047 c 0,0.86719 0.0391,1.71094 0.14453,2.39062 l -1.6289,0 -0.16407,-1.25781 -0.0625,0 c -0.53906,0.78516 -1.63281,1.48828 -3.05468,1.48828 -2.01953,0 -3.05078,-1.42578 -3.05078,-2.86719 0,-2.41406 2.14453,-3.73437 6,-3.71484 l 0,-0.20703 c 0,-0.82422 -0.22657,-2.32813 -2.26954,-2.30859 -0.94531,0 -1.91796,0.26953 -2.61718,0.74218 l -0.41407,-1.21875 c 0.82422,-0.51562 2.04297,-0.86328 3.30079,-0.86328 3.07421,0 3.8125,2.08203 3.8125,4.08203 l 0,3.73438 z m -1.77344,-2.70313 c -1.98046,-0.0391 -4.23046,0.3125 -4.23046,2.25 0,1.19532 0.78515,1.73047 1.6914,1.73047 1.32031,0 2.16797,-0.82422 2.45703,-1.66797 0.0586,-0.1875 0.082,-0.39453 0.082,-0.57812 z m 0,0"
       id="path63"
       style="fill:#000000;fill-opacity:1;fill-rule:nonzero;stroke:none" />
    <path
       d="m 338.17578,129.74609 0,2.39453 2.60156,0 0,1.38282 -2.60156,0 0,5.38281 c 0,1.23828 0.35156,1.9375 1.36328,1.9375 0.49219,0 0.78125,-0.0391 1.05078,-0.125 l 0.082,1.38281 c -0.35156,0.125 -0.90625,0.25 -1.60937,0.25 -0.84375,0 -1.52344,-0.28906 -1.95703,-0.76562 -0.4961,-0.55469 -0.70313,-1.44141 -0.70313,-2.61719 l 0,-5.44531 -1.54687,0 0,-1.38282 1.54687,0 0,-1.83593 z m 0,0"
       id="path65"
       style="fill:#000000;fill-opacity:1;fill-rule:nonzero;stroke:none" />
    <path
       d="m 343.72656,137.44141 c 0.043,2.45312 1.58985,3.46484 3.40235,3.46484 1.30078,0 2.10546,-0.22656 2.76562,-0.49609 l 0.32813,1.28125 c -0.63672,0.28906 -1.75,0.63671 -3.33985,0.63671 -3.05078,0 -4.91015,-2.04296 -4.91015,-5.03125 0,-3.03125 1.79687,-5.40234 4.70312,-5.40234 3.25781,0 4.10547,2.86719 4.10547,4.70313 0,0.37109 -0.0195,0.66015 -0.0625,0.86328 z m 5.30078,-1.30079 c 0.0195,-1.13281 -0.47265,-2.94921 -2.49609,-2.94921 -1.85547,0 -2.64063,1.6914 -2.78516,2.94921 z m 0,0"
       id="path67"
       style="fill:#000000;fill-opacity:1;fill-rule:nonzero;stroke:none" />
    <path
       d="m 360.0625,139.73047 c 0,0.86719 0.0391,1.71094 0.14453,2.39062 l -1.62891,0 -0.16796,-1.25781 -0.0586,0 c -0.53906,0.78516 -1.63281,1.48828 -3.05469,1.48828 -2.01953,0 -3.05078,-1.42578 -3.05078,-2.86719 0,-2.41406 2.14453,-3.73437 6,-3.71484 l 0,-0.20703 c 0,-0.82422 -0.22656,-2.32813 -2.26953,-2.30859 -0.94922,0 -1.91797,0.26953 -2.61719,0.74218 l -0.41406,-1.21875 c 0.82422,-0.51562 2.04297,-0.86328 3.30078,-0.86328 3.07422,0 3.81641,2.08203 3.81641,4.08203 z m -1.77344,-2.70313 c -1.98047,-0.0391 -4.23047,0.3125 -4.23047,2.25 0,1.19532 0.78516,1.73047 1.69141,1.73047 1.32031,0 2.16406,-0.82422 2.45312,-1.66797 0.0625,-0.1875 0.082,-0.39453 0.082,-0.57812 l 0,-1.73438 z m 0,0"
       id="path69"
       style="fill:#000000;fill-opacity:1;fill-rule:nonzero;stroke:none" />
    <path
       d="m 371.32031,139.39844 c 0,1.03125 0.0234,1.9414 0.082,2.72265 l -1.60547,0 -0.10546,-1.6289 -0.0391,0 c -0.45703,0.80468 -1.52734,1.85547 -3.30078,1.85547 -1.5664,0 -3.44531,-0.88672 -3.44531,-4.3711 l 0,-5.83594 1.81641,0 0,5.50391 c 0,1.89844 0.59765,3.19922 2.22656,3.19922 1.21484,0 2.0625,-0.84766 2.39453,-1.67188 0.10156,-0.24609 0.16406,-0.57812 0.16406,-0.92578 l 0,-6.10547 1.8125,0 z m 0,0"
       id="path71"
       style="fill:#000000;fill-opacity:1;fill-rule:nonzero;stroke:none" />
    <path
       d="m 382.76953,142.35156 c -2.68359,0 -4.78516,-1.98047 -4.78516,-5.13672 0,-3.34375 2.20704,-5.30078 4.94922,-5.30078 2.86719,0 4.80469,2.08203 4.80469,5.11328 0,3.71485 -2.57812,5.32422 -4.94922,5.32422 z m 0.0586,-1.36328 c 1.73438,0 3.03125,-1.62891 3.03125,-3.89844 0,-1.6914 -0.84375,-3.8164 -2.98828,-3.8164 -2.125,0 -3.05468,1.98047 -3.05468,3.8789 0,2.1875 1.23828,3.83594 2.99218,3.83594 z m 0,0"
       id="path73"
       style="fill:#000000;fill-opacity:1;fill-rule:nonzero;stroke:none" />
    <path
       d="m 390.19141,142.12109 0,-8.59765 -1.38282,0 0,-1.38282 1.38282,0 0,-0.47656 c 0,-1.39844 0.33203,-2.67969 1.17578,-3.48437 0.68359,-0.66016 1.58984,-0.92578 2.41406,-0.92578 0.66016,0 1.19531,0.14453 1.54687,0.28906 l -0.22656,1.40234 c -0.28906,-0.125 -0.64062,-0.22656 -1.17578,-0.22656 -1.52734,0 -1.94141,1.35937 -1.94141,2.88672 l 0,0.53515 2.41407,0 0,1.38282 -2.39453,0 0,8.59765 z m 0,0"
       id="path75"
       style="fill:#000000;fill-opacity:1;fill-rule:nonzero;stroke:none" />
    <path
       d="m 400.48437,128.40625 c 0.86329,-0.16406 2,-0.28906 3.44141,-0.28906 1.77344,0 3.07422,0.41406 3.89844,1.15625 0.76562,0.66015 1.23828,1.67187 1.23828,2.91015 0,1.25782 -0.37109,2.2461 -1.09375,2.96875 -0.94922,1.01172 -2.49609,1.52735 -4.25,1.52735 -0.53516,0 -1.03125,-0.0234 -1.44141,-0.125 l 0,5.5664 -1.79687,0 0,-13.71484 z m 1.79297,6.68359 c 0.39063,0.10157 0.90625,0.14453 1.48438,0.14453 2.1875,0 3.48437,-1.07421 3.48437,-2.94921 0,-1.85547 -1.30078,-2.74219 -3.27734,-2.74219 -0.78516,0 -1.38281,0.082 -1.69141,0.14453 z m 0,0"
       id="path77"
       style="fill:#000000;fill-opacity:1;fill-rule:nonzero;stroke:none" />
    <path
       d="m 411.06641,135.25391 c 0,-1.17579 -0.0195,-2.1875 -0.082,-3.11329 l 1.58594,0 0.0859,1.96094 0.0625,0 c 0.45312,-1.33984 1.56641,-2.1875 2.78125,-2.1875 0.1875,0 0.33203,0.0195 0.49609,0.0625 l 0,1.69141 c -0.20703,-0.0234 -0.39062,-0.043 -0.64062,-0.043 -1.27735,0 -2.1836,0.96875 -2.4336,2.3125 -0.0391,0.26562 -0.0625,0.55469 -0.0625,0.86328 l 0,5.32031 -1.8125,0 z m 0,0"
       id="path79"
       style="fill:#000000;fill-opacity:1;fill-rule:nonzero;stroke:none" />
    <path
       d="m 421.73047,142.35156 c -2.67969,0 -4.78516,-1.98047 -4.78516,-5.13672 0,-3.34375 2.20703,-5.30078 4.95313,-5.30078 2.86328,0 4.80468,2.08203 4.80468,5.11328 0,3.71485 -2.57812,5.32422 -4.94921,5.32422 z m 0.0625,-1.36328 c 1.73437,0 3.03125,-1.62891 3.03125,-3.89844 0,-1.6914 -0.84375,-3.8164 -2.98828,-3.8164 -2.125,0 -3.05469,1.98047 -3.05469,3.8789 0,2.1875 1.23828,3.83594 2.99219,3.83594 z m 0,0"
       id="path81"
       style="fill:#000000;fill-opacity:1;fill-rule:nonzero;stroke:none" />
    <path
       d="m 437.63281,127.48047 0,12.0625 c 0,0.88672 0.0195,1.89844 0.082,2.57812 l -1.6289,0 -0.082,-1.73047 -0.043,0 c -0.55469,1.11329 -1.75391,1.95704 -3.38282,1.95704 -2.41015,0 -4.28906,-2.03907 -4.28906,-5.07422 -0.0195,-3.33985 2.0625,-5.35938 4.47656,-5.35938 1.54688,0 2.57813,0.72266 3.01172,1.50391 l 0.0391,0 0,-5.9375 z m -1.8164,8.72265 c 0,-0.24609 -0.0195,-0.53515 -0.082,-0.78125 -0.26953,-1.13671 -1.25781,-2.08593 -2.61718,-2.08593 -1.87891,0 -2.99219,1.65234 -2.99219,3.83593 0,2.04297 1.01172,3.71485 2.94922,3.71485 1.21484,0 2.33203,-0.82813 2.66015,-2.16797 0.0625,-0.24609 0.082,-0.49609 0.082,-0.78516 z m 0,0"
       id="path83"
       style="fill:#000000;fill-opacity:1;fill-rule:nonzero;stroke:none" />
    <path
       d="m 448.99609,139.39844 c 0,1.03125 0.0195,1.9414 0.082,2.72265 l -1.60937,0 -0.10156,-1.6289 -0.043,0 c -0.45313,0.80468 -1.52344,1.85547 -3.30078,1.85547 -1.56641,0 -3.44141,-0.88672 -3.44141,-4.3711 l 0,-5.83594 1.8125,0 0,5.50391 c 0,1.89844 0.60156,3.19922 2.23047,3.19922 1.21484,0 2.0625,-0.84766 2.39062,-1.67188 0.10547,-0.24609 0.16407,-0.57812 0.16407,-0.92578 l 0,-6.10547 1.8164,0 z m 0,0"
       id="path85"
       style="fill:#000000;fill-opacity:1;fill-rule:nonzero;stroke:none" />
    <path
       d="m 459.12109,141.77344 c -0.47265,0.22656 -1.52343,0.57812 -2.86718,0.57812 -3.00782,0 -4.96875,-2.04297 -4.96875,-5.11719 0,-3.07421 2.10546,-5.32031 5.36328,-5.32031 1.07031,0 2.01953,0.26953 2.51562,0.53516 l -0.41406,1.38281 c -0.43359,-0.22656 -1.11328,-0.47266 -2.10156,-0.47266 -2.28907,0 -3.52735,1.71094 -3.52735,3.79297 0,2.3125 1.48438,3.73438 3.46485,3.73438 1.03125,0 1.71093,-0.25 2.22656,-0.47656 z m 0,0"
       id="path87"
       style="fill:#000000;fill-opacity:1;fill-rule:nonzero;stroke:none" />
    <path
       d="m 463.69922,129.74609 0,2.39453 2.59765,0 0,1.38282 -2.59765,0 0,5.38281 c 0,1.23828 0.35156,1.9375 1.35937,1.9375 0.4961,0 0.78516,-0.0391 1.05469,-0.125 l 0.082,1.38281 c -0.35156,0.125 -0.90625,0.25 -1.60937,0.25 -0.84375,0 -1.52735,-0.28906 -1.95703,-0.76562 -0.4961,-0.55469 -0.70313,-1.44141 -0.70313,-2.61719 l 0,-5.44531 -1.54687,0 0,-1.38282 1.54687,0 0,-1.83593 z m 0,0"
       id="path89"
       style="fill:#000000;fill-opacity:1;fill-rule:nonzero;stroke:none" />
    <path
       d="m 469.20703,130.30469 c -0.67969,0 -1.13672,-0.53516 -1.13672,-1.17578 0,-0.64063 0.47656,-1.15235 1.17578,-1.15235 0.70313,0 1.15625,0.51172 1.15625,1.15235 0,0.64062 -0.45312,1.17578 -1.17578,1.17578 z m -0.86719,11.8164 0,-9.98047 1.81641,0 0,9.98047 z m 0,0"
       id="path91"
       style="fill:#000000;fill-opacity:1;fill-rule:nonzero;stroke:none" />
    <path
       d="m 473.86719,132.14062 1.96093,5.58985 c 0.32813,0.92578 0.59766,1.7539 0.80079,2.57812 l 0.0625,0 c 0.22656,-0.82422 0.51562,-1.65234 0.84765,-2.57812 l 1.9375,-5.58985 1.89453,0 -3.91797,9.98047 -1.73046,0 -3.79297,-9.98047 z m 0,0"
       id="path93"
       style="fill:#000000;fill-opacity:1;fill-rule:nonzero;stroke:none" />
    <path
       d="m 483.95312,130.30469 c -0.68359,0 -1.13671,-0.53516 -1.13671,-1.17578 0,-0.64063 0.47656,-1.15235 1.17578,-1.15235 0.70312,0 1.15625,0.51172 1.15625,1.15235 0,0.64062 -0.45313,1.17578 -1.17578,1.17578 z m -0.86718,11.8164 0,-9.98047 1.8125,0 0,9.98047 z m 0,0"
       id="path95"
       style="fill:#000000;fill-opacity:1;fill-rule:nonzero;stroke:none" />
    <path
       d="m 490.09766,129.74609 0,2.39453 2.59765,0 0,1.38282 -2.59765,0 0,5.38281 c 0,1.23828 0.35156,1.9375 1.35937,1.9375 0.49609,0 0.78516,-0.0391 1.05469,-0.125 l 0.082,1.38281 c -0.35156,0.125 -0.90625,0.25 -1.60938,0.25 -0.84375,0 -1.52343,-0.28906 -1.96093,-0.76562 -0.49219,-0.55469 -0.69922,-1.44141 -0.69922,-2.61719 l 0,-5.44531 -1.54688,0 0,-1.38282 1.54688,0 0,-1.83593 z m 0,0"
       id="path97"
       style="fill:#000000;fill-opacity:1;fill-rule:nonzero;stroke:none" />
    <path
       d="m 495.57812,132.14062 2.16797,5.89844 c 0.2461,0.66016 0.49219,1.44531 0.66016,2.04297 l 0.0391,0 c 0.1875,-0.59766 0.39063,-1.36328 0.64063,-2.08594 l 1.98047,-5.85547 1.91796,0 -2.72265,7.11719 c -1.30078,3.42188 -2.1875,5.17578 -3.42578,6.26953 -0.90625,0.76172 -1.77344,1.07032 -2.22657,1.15235 l -0.45703,-1.52344 c 0.45703,-0.125 1.05469,-0.41406 1.58985,-0.88672 0.49609,-0.39453 1.09375,-1.09375 1.52734,-2.02344 0.082,-0.18359 0.14453,-0.30859 0.14453,-0.43359 0,-0.10156 -0.043,-0.24609 -0.14453,-0.45313 l -3.67187,-9.21875 z m 0,0"
       id="path99"
       style="fill:#000000;fill-opacity:1;fill-rule:nonzero;stroke:none" />
    <path
       d="m 265.48437,231.60937 c 0.80469,0.51563 1.95704,0.90625 3.19532,0.90625 1.83593,0 2.91015,-0.94921 2.91015,-2.37109 0,-1.28125 -0.74609,-2.04297 -2.62109,-2.74609 -2.26953,-0.82422 -3.67188,-2.01953 -3.67188,-3.95703 0,-2.16797 1.79688,-3.77344 4.4961,-3.77344 1.40234,0 2.45703,0.32812 3.05469,0.67969 l -0.4961,1.46484 c -0.43359,-0.26953 -1.35937,-0.66016 -2.61719,-0.66016 -1.89843,0 -2.62109,1.13282 -2.62109,2.08203 0,1.30079 0.84766,1.9375 2.76563,2.67969 2.34765,0.92969 3.52343,2.04688 3.52343,4.08594 0,2.14453 -1.5664,4.01953 -4.84375,4.01953 -1.34375,0 -2.80468,-0.41016 -3.54687,-0.90625 z m 0,0"
       id="path101"
       style="fill:#000000;fill-opacity:1;fill-rule:nonzero;stroke:none" />
    <path
       d="m 275.77344,219.15234 1.8164,0 0,14.64063 -1.8164,0 z m 0,0"
       id="path103"
       style="fill:#000000;fill-opacity:1;fill-rule:nonzero;stroke:none" />
    <path
       d="m 284.66406,234.01953 c -2.67969,0 -4.78515,-1.98047 -4.78515,-5.13281 0,-3.34375 2.20703,-5.30078 4.94921,-5.30078 2.86719,0 4.8086,2.08203 4.8086,5.11328 0,3.71094 -2.57813,5.32031 -4.95313,5.32031 z m 0.0625,-1.35937 c 1.73047,0 3.03125,-1.62891 3.03125,-3.89844 0,-1.69141 -0.84765,-3.81641 -2.99219,-3.81641 -2.12109,0 -3.05078,1.98047 -3.05078,3.87891 0,2.1875 1.23828,3.83594 2.99219,3.83594 z m 0,0"
       id="path105"
       style="fill:#000000;fill-opacity:1;fill-rule:nonzero;stroke:none" />
    <path
       d="m 291.92187,227.07031 c 0,-1.27734 -0.0195,-2.30859 -0.082,-3.25781 l 1.62891,0 0.10547,1.71094 0.0391,0 c 0.72656,-1.23828 1.91797,-1.9375 3.52734,-1.9375 2.4336,0 4.25,2.04297 4.25,5.07422 0,3.58593 -2.20703,5.35937 -4.53906,5.35937 -1.33984,0 -2.47265,-0.57812 -3.07031,-1.56641 l -0.043,0 0,5.42579 -1.8125,0 0,-10.8086 z m 1.81641,2.66016 c 0,0.24609 0.0195,0.51562 0.082,0.74219 0.3086,1.25781 1.42188,2.125 2.70313,2.125 1.91797,0 3.03125,-1.56641 3.03125,-3.85547 0,-2.00391 -1.03125,-3.71485 -2.94922,-3.71485 -1.23828,0 -2.41406,0.86719 -2.76563,2.23047 -0.0391,0.2461 -0.10156,0.51563 -0.10156,0.74219 z m 0,0"
       id="path107"
       style="fill:#000000;fill-opacity:1;fill-rule:nonzero;stroke:none" />
    <path
       d="m 304.71094,229.11328 c 0.0391,2.45313 1.58593,3.46484 3.40234,3.46484 1.29688,0 2.10156,-0.22656 2.76172,-0.49609 l 0.33203,1.27734 C 310.56641,233.64844 309.45312,234 307.86328,234 c -3.05078,0 -4.90625,-2.04297 -4.90625,-5.03125 0,-3.03125 1.79297,-5.40234 4.70313,-5.40234 3.25781,0 4.10156,2.86328 4.10156,4.69921 0,0.3711 -0.0195,0.66016 -0.0625,0.86719 z m 5.30078,-1.30078 c 0.0195,-1.13281 -0.47656,-2.94922 -2.4961,-2.94922 -1.85546,0 -2.64062,1.69141 -2.78515,2.94922 z m 0,0"
       id="path109"
       style="fill:#000000;fill-opacity:1;fill-rule:nonzero;stroke:none" />
    <path
       d="m 322.44531,234.01953 c -2.67969,0 -4.78515,-1.98047 -4.78515,-5.13281 0,-3.34375 2.20703,-5.30078 4.94921,-5.30078 2.86719,0 4.8086,2.08203 4.8086,5.11328 0,3.71094 -2.57813,5.32031 -4.94922,5.32031 z m 0.0625,-1.35937 c 1.73047,0 3.03125,-1.62891 3.03125,-3.89844 0,-1.69141 -0.84375,-3.81641 -2.98828,-3.81641 -2.125,0 -3.05469,1.98047 -3.05469,3.87891 0,2.1875 1.23828,3.83594 2.99219,3.83594 z m 0,0"
       id="path111"
       style="fill:#000000;fill-opacity:1;fill-rule:nonzero;stroke:none" />
    <path
       d="m 329.87109,233.79297 0,-8.60156 -1.38281,0 0,-1.38282 1.38281,0 0,-0.47265 c 0,-1.40235 0.32813,-2.6836 1.17578,-3.48438 0.67969,-0.66015 1.58594,-0.92969 2.41407,-0.92969 0.65625,0 1.19531,0.14454 1.54687,0.28907 l -0.23047,1.40234 c -0.28515,-0.125 -0.63672,-0.22656 -1.17578,-0.22656 -1.52344,0 -1.9375,1.35937 -1.9375,2.88672 l 0,0.53515 2.41406,0 0,1.38282 -2.39453,0 0,8.60156 z m 0,0"
       id="path113"
       style="fill:#000000;fill-opacity:1;fill-rule:nonzero;stroke:none" />
    <path
       d="m 347.33984,227.27734 -5.38281,0 0,5.01172 6.01953,0 0,1.50391 -7.83594,0 0,-13.89844 7.52735,0 0,1.50391 -5.71485,0 0,4.39453 5.38672,0 z m 0,0"
       id="path115"
       style="fill:#000000;fill-opacity:1;fill-rule:nonzero;stroke:none" />
    <path
       d="m 350.24609,226.51172 c 0,-1.05078 -0.0195,-1.875 -0.082,-2.69922 l 1.60938,0 0.10156,1.62891 0.043,0 c 0.49219,-0.92969 1.64844,-1.85547 3.30078,-1.85547 1.37891,0 3.52344,0.82422 3.52344,4.24609 l 0,5.96094 -1.8125,0 0,-5.75391 c 0,-1.60937 -0.59766,-2.96875 -2.3125,-2.96875 -1.17578,0 -2.10157,0.84375 -2.4336,1.85547 -0.082,0.22656 -0.12109,0.55859 -0.12109,0.84375 l 0,6.02344 -1.81641,0 z m 0,0"
       id="path117"
       style="fill:#000000;fill-opacity:1;fill-rule:nonzero;stroke:none" />
    <path
       d="m 361.69141,219.15234 1.8164,0 0,14.64063 -1.8164,0 z m 0,0"
       id="path119"
       style="fill:#000000;fill-opacity:1;fill-rule:nonzero;stroke:none" />
    <path
       d="m 367.38281,221.97656 c -0.67969,0 -1.13281,-0.53515 -1.13281,-1.17578 0,-0.64062 0.47656,-1.15625 1.17578,-1.15625 0.70313,0 1.15625,0.51563 1.15625,1.15625 0,0.63672 -0.45312,1.17578 -1.17578,1.17578 z m -0.86328,11.81641 0,-9.98047 1.8125,0 0,9.98047 z m 0,0"
       id="path121"
       style="fill:#000000;fill-opacity:1;fill-rule:nonzero;stroke:none" />
    <path
       d="m 379.88281,232.32812 c 0,2.3125 -0.47265,3.69141 -1.42187,4.57813 -0.99219,0.89062 -2.39453,1.19922 -3.65235,1.19922 -1.19531,0 -2.51562,-0.28906 -3.32031,-0.82813 l 0.45313,-1.39843 c 0.66015,0.42968 1.6914,0.80078 2.92968,0.80078 1.85547,0 3.21875,-0.96875 3.21875,-3.50391 l 0,-1.09375 -0.0391,0 c -0.53906,0.92969 -1.63281,1.67188 -3.17969,1.67188 -2.47265,0 -4.25,-2.10547 -4.25,-4.89063 0,-3.38281 2.20703,-5.27734 4.51953,-5.27734 1.73047,0 2.66016,0.88672 3.11329,1.71093 l 0.043,0 0.0625,-1.48437 1.60938,0 c -0.0625,0.69922 -0.0859,1.50391 -0.0859,2.72266 z m -1.8164,-4.59765 c 0,-0.28906 -0.0195,-0.5586 -0.10157,-0.80469 -0.33203,-1.07422 -1.19531,-1.9375 -2.53515,-1.9375 -1.73438,0 -2.97266,1.46484 -2.97266,3.79297 0,1.9375 1.01172,3.58984 2.94922,3.58984 1.13281,0 2.14453,-0.70312 2.51562,-1.8789 0.10547,-0.28516 0.14454,-0.63672 0.14454,-0.96875 z m 0,0"
       id="path123"
       style="fill:#000000;fill-opacity:1;fill-rule:nonzero;stroke:none" />
    <path
       d="m 382.87109,219.15234 1.81641,0 0,6.22657 0.043,0 c 0.28515,-0.51563 0.74219,-0.98829 1.29687,-1.27735 0.53516,-0.33203 1.17578,-0.51562 1.85547,-0.51562 1.34375,0 3.48438,0.82422 3.48438,4.26953 l 0,5.9375 -1.8125,0 0,-5.73047 c 0,-1.63281 -0.59766,-2.97266 -2.3125,-2.97266 -1.17578,0 -2.08203,0.82422 -2.4336,1.81641 -0.10156,0.24609 -0.12109,0.51562 -0.12109,0.86328 l 0,6.02344 -1.81641,0 z m 0,0"
       id="path125"
       style="fill:#000000;fill-opacity:1;fill-rule:nonzero;stroke:none" />
    <path
       d="m 396.42578,221.41797 0,2.39453 2.59766,0 0,1.38281 -2.59766,0 0,5.38281 c 0,1.23438 0.35156,1.9375 1.35938,1.9375 0.49609,0 0.78515,-0.043 1.05468,-0.125 l 0.082,1.38282 c -0.35156,0.125 -0.91015,0.24609 -1.60937,0.24609 -0.84766,0 -1.52734,-0.28906 -1.96094,-0.76172 -0.49219,-0.55859 -0.69922,-1.44531 -0.69922,-2.61719 l 0,-5.44531 -1.54687,0 0,-1.38281 1.54687,0 0,-1.83594 z m 0,0"
       id="path127"
       style="fill:#000000;fill-opacity:1;fill-rule:nonzero;stroke:none" />
    <path
       d="m 401.97656,229.11328 c 0.0391,2.45313 1.58594,3.46484 3.40235,3.46484 1.30078,0 2.10156,-0.22656 2.76171,-0.49609 l 0.33204,1.27734 C 407.83203,233.64844 406.71875,234 405.13281,234 c -3.05469,0 -4.91015,-2.04297 -4.91015,-5.03125 0,-3.03125 1.79296,-5.40234 4.70312,-5.40234 3.25781,0 4.10156,2.86328 4.10156,4.69921 0,0.3711 -0.0195,0.66016 -0.0586,0.86719 z m 5.30078,-1.30078 c 0.0195,-1.13281 -0.47656,-2.94922 -2.49609,-2.94922 -1.85547,0 -2.64063,1.69141 -2.78516,2.94922 z m 0,0"
       id="path129"
       style="fill:#000000;fill-opacity:1;fill-rule:nonzero;stroke:none" />
    <path
       d="m 411.27734,226.51172 c 0,-1.05078 -0.0234,-1.875 -0.082,-2.69922 l 1.60547,0 0.10547,1.62891 0.0391,0 c 0.4961,-0.92969 1.65235,-1.85547 3.30078,-1.85547 1.38282,0 3.52735,0.82422 3.52735,4.24609 l 0,5.96094 -1.8125,0 0,-5.75391 c 0,-1.60937 -0.60157,-2.96875 -2.3125,-2.96875 -1.17578,0 -2.10157,0.84375 -2.4336,1.85547 -0.082,0.22656 -0.125,0.55859 -0.125,0.84375 l 0,6.02344 -1.8125,0 z m 0,0"
       id="path131"
       style="fill:#000000;fill-opacity:1;fill-rule:nonzero;stroke:none" />
    <path
       d="m 422.72266,226.51172 c 0,-1.05078 -0.0391,-1.875 -0.082,-2.69922 l 1.58985,0 0.082,1.60937 0.0586,0 c 0.5586,-0.94921 1.48828,-1.83593 3.15625,-1.83593 1.33985,0 2.3711,0.82422 2.8086,2 l 0.0391,0 c 0.3125,-0.57813 0.72266,-0.99219 1.13672,-1.30078 0.59765,-0.45313 1.23437,-0.69922 2.18359,-0.69922 1.34375,0 3.30078,0.86328 3.30078,4.32812 l 0,5.87891 -1.77343,0 0,-5.64844 c 0,-1.94141 -0.72266,-3.07422 -2.16407,-3.07422 -1.05468,0 -1.83593,0.76172 -2.16797,1.62891 -0.082,0.26953 -0.14453,0.59765 -0.14453,0.90625 l 0,6.1875 -1.77343,0 0,-5.98047 c 0,-1.60938 -0.69922,-2.74219 -2.08204,-2.74219 -1.11328,0 -1.95703,0.90625 -2.24609,1.81641 -0.10547,0.26562 -0.14453,0.57422 -0.14453,0.88672 l 0,6.01953 -1.77344,0 0,-7.28125 z m 0,0"
       id="path133"
       style="fill:#000000;fill-opacity:1;fill-rule:nonzero;stroke:none" />
    <path
       d="m 440.95312,229.11328 c 0.043,2.45313 1.58985,3.46484 3.40235,3.46484 1.30078,0 2.10547,-0.22656 2.76562,-0.49609 l 0.32813,1.27734 c -0.63672,0.28907 -1.75,0.64063 -3.33985,0.64063 -3.05078,0 -4.90625,-2.04297 -4.90625,-5.03125 0,-3.03125 1.79297,-5.40234 4.69922,-5.40234 3.26172,0 4.10547,2.86328 4.10547,4.69921 0,0.3711 -0.0195,0.66016 -0.0625,0.86719 z m 5.30079,-1.30078 c 0.0195,-1.13281 -0.47266,-2.94922 -2.4961,-2.94922 -1.85547,0 -2.63672,1.69141 -2.78125,2.94922 z m 0,0"
       id="path135"
       style="fill:#000000;fill-opacity:1;fill-rule:nonzero;stroke:none" />
    <path
       d="m 450.25391,226.51172 c 0,-1.05078 -0.0195,-1.875 -0.082,-2.69922 l 1.60938,0 0.10156,1.62891 0.043,0 c 0.49609,-0.92969 1.64844,-1.85547 3.30078,-1.85547 1.37891,0 3.52735,0.82422 3.52735,4.24609 l 0,5.96094 -1.81641,0 0,-5.75391 c 0,-1.60937 -0.59766,-2.96875 -2.30859,-2.96875 -1.17579,0 -2.10547,0.84375 -2.4336,1.85547 -0.0859,0.22656 -0.125,0.55859 -0.125,0.84375 l 0,6.02344 -1.8164,0 z m 0,0"
       id="path137"
       style="fill:#000000;fill-opacity:1;fill-rule:nonzero;stroke:none" />
    <path
       d="m 463.80859,221.41797 0,2.39453 2.59766,0 0,1.38281 -2.59766,0 0,5.38281 c 0,1.23438 0.34766,1.9375 1.35938,1.9375 0.49609,0 0.78515,-0.043 1.05078,-0.125 l 0.0859,1.38282 c -0.35157,0.125 -0.91016,0.24609 -1.60938,0.24609 -0.84765,0 -1.52344,-0.28906 -1.96094,-0.76172 -0.49609,-0.55859 -0.69921,-1.44531 -0.69921,-2.61719 l 0,-5.44531 -1.54688,0 0,-1.38281 1.54688,0 0,-1.83594 z m 0,0"
       id="path139"
       style="fill:#000000;fill-opacity:1;fill-rule:nonzero;stroke:none" />
    <path
       d="m 158.96094,298.72266 -4.23047,0 0,-1.52735 10.29297,0 0,1.52735 -4.25,0 0,12.375 -1.8125,0 z m 0,0"
       id="path141"
       style="fill:#000000;fill-opacity:1;fill-rule:nonzero;stroke:none" />
    <path
       d="m 165.60156,304.23047 c 0,-1.17578 -0.0195,-2.19141 -0.082,-3.11719 l 1.58594,0 0.0859,1.96094 0.0625,0 c 0.45312,-1.33985 1.5664,-2.1875 2.78125,-2.1875 0.1875,0 0.33203,0.0195 0.49609,0.0625 l 0,1.6914 c -0.20703,-0.0234 -0.39063,-0.043 -0.64063,-0.043 -1.27734,0 -2.1875,0.96875 -2.43359,2.30859 -0.043,0.26953 -0.0625,0.55859 -0.0625,0.86719 l 0,5.32031 -1.81641,0 z m 0,0"
       id="path143"
       style="fill:#000000;fill-opacity:1;fill-rule:nonzero;stroke:none" />
    <path
       d="m 176.26562,311.32422 c -2.67968,0 -4.78515,-1.98047 -4.78515,-5.13672 0,-3.33984 2.20703,-5.30078 4.95312,-5.30078 2.86719,0 4.80469,2.08203 4.80469,5.11719 0,3.71093 -2.57812,5.3164 -4.94922,5.3164 l -0.0234,0 z m 0.0625,-1.36328 c 1.73438,0 3.03125,-1.62891 3.03125,-3.89844 0,-1.69141 -0.84375,-3.8125 -2.98828,-3.8125 -2.125,0 -3.05468,1.98047 -3.05468,3.875 0,2.1875 1.23828,3.83594 2.99218,3.83594 z m 0,0"
       id="path145"
       style="fill:#000000;fill-opacity:1;fill-rule:nonzero;stroke:none" />
    <path
       d="m 191.87891,308.375 c 0,1.03125 0.0195,1.9375 0.082,2.72266 l -1.60938,0 -0.10156,-1.62891 -0.0391,0 c -0.45703,0.80469 -1.52735,1.85547 -3.30078,1.85547 -1.56641,0 -3.44532,-0.88672 -3.44532,-4.375 l 0,-5.83594 1.81641,0 0,5.50781 c 0,1.89844 0.59766,3.19532 2.22656,3.19532 1.21485,0 2.0625,-0.84375 2.39063,-1.66797 0.10547,-0.25 0.16797,-0.57813 0.16797,-0.92969 l 0,-6.10547 1.8125,0 z m 0,0"
       id="path147"
       style="fill:#000000;fill-opacity:1;fill-rule:nonzero;stroke:none" />
    <path
       d="m 203.42969,309.63281 c 0,2.3086 -0.47657,3.69141 -1.42188,4.57813 -0.99219,0.88672 -2.39453,1.19531 -3.65234,1.19531 -1.19531,0 -2.51563,-0.28906 -3.32031,-0.82422 l 0.45312,-1.40234 c 0.66016,0.43359 1.69141,0.80468 2.92969,0.80468 1.85547,0 3.21875,-0.96875 3.21875,-3.50781 l 0,-1.09375 -0.043,0 c -0.53516,0.92969 -1.62891,1.67188 -3.17578,1.67188 -2.47656,0 -4.25,-2.10547 -4.25,-4.89063 0,-3.3789 2.20703,-5.27734 4.51953,-5.27734 1.73047,0 2.66016,0.88672 3.11328,1.71094 l 0.043,0 0.0586,-1.48438 1.60938,0 c -0.0625,0.70313 -0.082,1.50781 -0.082,2.72266 z m -1.81641,-4.60156 c 0,-0.28516 -0.0195,-0.55469 -0.10156,-0.80078 -0.33203,-1.07422 -1.19531,-1.94141 -2.53906,-1.94141 -1.73047,0 -2.96875,1.46485 -2.96875,3.79688 0,1.9375 1.01171,3.58984 2.94921,3.58984 1.13282,0 2.14454,-0.70312 2.51563,-1.87891 0.10547,-0.28906 0.14453,-0.64062 0.14453,-0.96875 z m 0,0"
       id="path149"
       style="fill:#000000;fill-opacity:1;fill-rule:nonzero;stroke:none" />
    <path
       d="m 206.41797,296.45312 1.8164,0 0,6.23047 0.043,0 c 0.28907,-0.51562 0.74219,-0.99218 1.29688,-1.28125 0.53515,-0.32812 1.17578,-0.51562 1.85547,-0.51562 1.34375,0 3.48828,0.82812 3.48828,4.26953 l 0,5.94141 -1.81641,0 0,-5.73438 c 0,-1.62891 -0.59765,-2.96875 -2.30859,-2.96875 -1.17578,0 -2.08203,0.82422 -2.4336,1.8125 -0.10546,0.25 -0.125,0.51563 -0.125,0.86719 l 0,6.02344 -1.8164,0 z m 0,0"
       id="path151"
       style="fill:#000000;fill-opacity:1;fill-rule:nonzero;stroke:none" />
    <path
       d="m 226.30078,311.32422 c -2.68359,0 -4.78516,-1.98047 -4.78516,-5.13672 0,-3.33984 2.20704,-5.30078 4.94922,-5.30078 2.86719,0 4.80469,2.08203 4.80469,5.11719 0,3.71093 -2.57812,5.3164 -4.94922,5.3164 l -0.0195,0 z m 0.0625,-1.36328 c 1.73047,0 3.03125,-1.62891 3.03125,-3.89844 0,-1.69141 -0.84766,-3.8125 -2.99219,-3.8125 -2.125,0 -3.05078,1.98047 -3.05078,3.875 0,2.1875 1.23828,3.83594 2.99219,3.83594 z m 0,0"
       id="path153"
       style="fill:#000000;fill-opacity:1;fill-rule:nonzero;stroke:none" />
    <path
       d="m 233.72656,311.09766 0,-8.60157 -1.38281,0 0,-1.38281 1.38281,0 0,-0.47656 c 0,-1.40235 0.32813,-2.67969 1.17578,-3.48438 0.67969,-0.66015 1.58594,-0.92578 2.41016,-0.92578 0.66016,0 1.19922,0.14453 1.54687,0.28906 l -0.22656,1.39844 c -0.28906,-0.12109 -0.63672,-0.22656 -1.17578,-0.22656 -1.52344,0 -1.9375,1.36328 -1.9375,2.88672 l 0,0.53906 2.41406,0 0,1.38281 -2.39453,0 0,8.59766 -1.8125,0 z m 0,0"
       id="path155"
       style="fill:#000000;fill-opacity:1;fill-rule:nonzero;stroke:none" />
    <path
       d="m 243.99609,297.38281 c 1.11328,-0.16797 2.41016,-0.28906 3.83594,-0.28906 2.57813,0 4.41406,0.57812 5.62891,1.71094 1.25781,1.13281 1.98047,2.76172 1.98047,5.01172 0,2.26953 -0.72266,4.125 -2,5.40234 -1.32032,1.30078 -3.46485,2 -6.16797,2 -1.29688,0 -2.35157,-0.0391 -3.27735,-0.16406 z m 1.8125,12.3125 c 0.45703,0.082 1.11719,0.082 1.81641,0.082 3.83594,0.0195 5.91797,-2.14453 5.91797,-5.89843 0.0234,-3.32032 -1.83203,-5.36329 -5.62891,-5.36329 -0.92969,0 -1.6289,0.082 -2.10547,0.1875 z m 0,0"
       id="path157"
       style="fill:#000000;fill-opacity:1;fill-rule:nonzero;stroke:none" />
    <path
       d="m 258.59375,299.27734 c -0.67969,0 -1.13281,-0.53515 -1.13281,-1.17578 0,-0.63672 0.47656,-1.15234 1.17578,-1.15234 0.70312,0 1.15625,0.51562 1.15625,1.15234 0,0.64063 -0.45313,1.17578 -1.17578,1.17578 z m -0.86328,11.82032 0,-9.98438 1.8125,0 0,9.98438 z m 0,0"
       id="path159"
       style="fill:#000000;fill-opacity:1;fill-rule:nonzero;stroke:none" />
    <path
       d="m 262.30859,309.26172 c 0.55469,0.32812 1.50391,0.69922 2.41407,0.69922 1.29687,0 1.91796,-0.64063 1.91796,-1.48438 0,-0.86719 -0.51953,-1.33984 -1.83593,-1.83594 -1.81641,-0.66015 -2.66016,-1.6289 -2.66016,-2.82421 0,-1.60938 1.32031,-2.92969 3.44141,-2.92969 1.01172,0 1.89843,0.26953 2.43359,0.62109 l -0.42969,1.29688 c -0.39453,-0.22657 -1.11718,-0.57813 -2.04297,-0.57813 -1.07421,0 -1.65234,0.6211 -1.65234,1.36328 0,0.84375 0.57813,1.21485 1.87891,1.71094 1.71093,0.64063 2.61718,1.50391 2.61718,3.01172 0,1.77344 -1.3789,3.01172 -3.71093,3.01172 -1.09375,0 -2.10547,-0.28906 -2.80469,-0.70313 z m 0,0"
       id="path161"
       style="fill:#000000;fill-opacity:1;fill-rule:nonzero;stroke:none" />
    <path
       d="m 271.58984,299.27734 c -0.68359,0 -1.13672,-0.53515 -1.13672,-1.17578 0,-0.63672 0.47657,-1.15234 1.17579,-1.15234 0.70312,0 1.15625,0.51562 1.15625,1.15234 0,0.64063 -0.45313,1.17578 -1.17579,1.17578 z m -0.86718,11.82032 0,-9.98438 1.8125,0 0,9.98438 z m 0,0"
       id="path163"
       style="fill:#000000;fill-opacity:1;fill-rule:nonzero;stroke:none" />
    <path
       d="m 275.54687,296.45312 1.81641,0 0,14.64454 -1.81641,0 z m 0,0"
       id="path165"
       style="fill:#000000;fill-opacity:1;fill-rule:nonzero;stroke:none" />
    <path
       d="m 280.375,296.45312 1.8125,0 0,14.64454 -1.8125,0 z m 0,0"
       id="path167"
       style="fill:#000000;fill-opacity:1;fill-rule:nonzero;stroke:none" />
    <path
       d="m 293.55469,308.375 c 0,1.03125 0.0195,1.9375 0.082,2.72266 l -1.60938,0 -0.10547,-1.62891 -0.0391,0 c -0.45312,0.80469 -1.52734,1.85547 -3.30078,1.85547 -1.56641,0 -3.44531,-0.88672 -3.44531,-4.375 l 0,-5.83594 1.8164,0 0,5.50781 c 0,1.89844 0.59766,3.19532 2.22657,3.19532 1.21875,0 2.0625,-0.84375 2.39453,-1.66797 0.10156,-0.25 0.16406,-0.57813 0.16406,-0.92969 l 0,-6.10547 1.81641,0 z m 0,0"
       id="path169"
       style="fill:#000000;fill-opacity:1;fill-rule:nonzero;stroke:none" />
    <path
       d="m 296.31641,309.26172 c 0.55468,0.32812 1.5039,0.69922 2.41015,0.69922 1.30078,0 1.92188,-0.64063 1.92188,-1.48438 0,-0.86719 -0.51563,-1.33984 -1.83594,-1.83594 -1.81641,-0.66015 -2.66016,-1.6289 -2.66016,-2.82421 0,-1.60938 1.31641,-2.92969 3.44141,-2.92969 1.01172,0 1.89844,0.26953 2.43359,0.62109 l -0.43359,1.29688 c -0.39063,-0.22657 -1.11328,-0.57813 -2.03906,-0.57813 -1.07422,0 -1.65235,0.6211 -1.65235,1.36328 0,0.84375 0.57813,1.21485 1.87891,1.71094 1.71094,0.64063 2.61719,1.50391 2.61719,3.01172 0,1.77344 -1.37891,3.01172 -3.71094,3.01172 -1.09375,0 -2.10547,-0.28906 -2.80469,-0.70313 z m 0,0"
       id="path171"
       style="fill:#000000;fill-opacity:1;fill-rule:nonzero;stroke:none" />
    <path
       d="m 305.59766,299.27734 c -0.6836,0 -1.13672,-0.53515 -1.13672,-1.17578 0,-0.63672 0.47656,-1.15234 1.17578,-1.15234 0.70312,0 1.15625,0.51562 1.15625,1.15234 0,0.64063 -0.45313,1.17578 -1.17578,1.17578 z m -0.86719,11.82032 0,-9.98438 1.8125,0 0,9.98438 z m 0,0"
       id="path173"
       style="fill:#000000;fill-opacity:1;fill-rule:nonzero;stroke:none" />
    <path
       d="m 313.61719,311.32422 c -2.67969,0 -4.78125,-1.98047 -4.78125,-5.13672 0,-3.33984 2.20703,-5.30078 4.94922,-5.30078 2.86718,0 4.80468,2.08203 4.80468,5.11719 0,3.71093 -2.57812,5.3164 -4.94922,5.3164 l -0.0234,0 z m 0.0625,-1.36328 c 1.73437,0 3.03515,-1.62891 3.03515,-3.89844 0,-1.69141 -0.84765,-3.8125 -2.99218,-3.8125 -2.125,0 -3.05079,1.98047 -3.05079,3.875 0,2.1875 1.23438,3.83594 2.98829,3.83594 z m 0,0"
       id="path175"
       style="fill:#000000;fill-opacity:1;fill-rule:nonzero;stroke:none" />
    <path
       d="m 320.87891,303.81641 c 0,-1.05079 -0.0195,-1.87891 -0.082,-2.70313 l 1.60938,0 0.10156,1.62891 0.043,0 c 0.49219,-0.92578 1.64844,-1.85547 3.29688,-1.85547 1.38281,0 3.52734,0.82812 3.52734,4.25 l 0,5.96094 -1.8125,0 0,-5.75391 c 0,-1.60938 -0.60156,-2.97266 -2.3125,-2.97266 -1.17578,0 -2.10156,0.84766 -2.43359,1.85938 -0.082,0.22656 -0.1211,0.55469 -0.1211,0.84375 l 0,6.02344 -1.8164,0 z m 0,0"
       id="path177"
       style="fill:#000000;fill-opacity:1;fill-rule:nonzero;stroke:none" />
    <path
       d="m 332.32422,303.81641 c 0,-1.05079 -0.043,-1.87891 -0.082,-2.70313 l 1.58593,0 0.0859,1.60938 0.0586,0 c 0.55859,-0.94922 1.48828,-1.83594 3.15625,-1.83594 1.33984,0 2.37109,0.82422 2.80468,2 l 0.043,0 c 0.3086,-0.57813 0.72266,-0.98828 1.13281,-1.29688 0.60157,-0.45312 1.23829,-0.70312 2.1875,-0.70312 1.34375,0 3.30079,0.86719 3.30079,4.33203 l 0,5.87891 -1.77344,0 0,-5.65235 c 0,-1.9375 -0.72266,-3.07422 -2.16406,-3.07422 -1.05469,0 -1.83594,0.76563 -2.16797,1.63282 -0.082,0.26562 -0.14453,0.59765 -0.14453,0.90625 l 0,6.1875 -1.77344,0 0,-5.98047 c 0,-1.60938 -0.69922,-2.7461 -2.08203,-2.7461 -1.11328,0 -1.96094,0.91016 -2.2461,1.81641 -0.10547,0.26953 -0.14453,0.57812 -0.14453,0.88672 l 0,6.02344 -1.77344,0 0,-7.28125 z m 0,0"
       id="path179"
       style="fill:#000000;fill-opacity:1;fill-rule:nonzero;stroke:none" />
    <path
       d="m 350.55859,306.41406 c 0.0391,2.45313 1.58594,3.46485 3.40235,3.46485 1.29687,0 2.10156,-0.22657 2.76172,-0.49219 l 0.33203,1.27734 c -0.64063,0.28906 -1.75391,0.64063 -3.34375,0.64063 -3.05078,0 -4.90625,-2.04297 -4.90625,-5.03516 0,-3.03125 1.79297,-5.40234 4.70312,-5.40234 3.25781,0 4.10156,2.86718 4.10156,4.70312 0,0.3711 -0.0195,0.66016 -0.0586,0.86719 z m 5.29688,-1.29687 c 0.0234,-1.13672 -0.47266,-2.94922 -2.49219,-2.94922 -1.85937,0 -2.64062,1.6875 -2.78516,2.94922 z m 0,0"
       id="path181"
       style="fill:#000000;fill-opacity:1;fill-rule:nonzero;stroke:none" />
    <path
       d="m 359.85937,303.81641 c 0,-1.05079 -0.0234,-1.87891 -0.0859,-2.70313 l 1.60937,0 0.10547,1.62891 0.0391,0 c 0.4961,-0.92578 1.65235,-1.85547 3.30078,-1.85547 1.38282,0 3.52735,0.82812 3.52735,4.25 l 0,5.96094 -1.81641,0 0,-5.75391 c 0,-1.60938 -0.59765,-2.97266 -2.30859,-2.97266 -1.17578,0 -2.10547,0.84766 -2.4336,1.85938 -0.082,0.22656 -0.125,0.55469 -0.125,0.84375 l 0,6.02344 -1.8125,0 z m 0,0"
       id="path183"
       style="fill:#000000;fill-opacity:1;fill-rule:nonzero;stroke:none" />
    <path
       d="m 373.41016,298.72266 0,2.39062 2.59765,0 0,1.38281 -2.59765,0 0,5.38282 c 0,1.23828 0.34765,1.9375 1.35937,1.9375 0.49609,0 0.78516,-0.0391 1.05078,-0.1211 l 0.0859,1.38281 c -0.35156,0.1211 -0.91016,0.2461 -1.60938,0.2461 -0.84765,0 -1.52734,-0.28906 -1.96093,-0.76172 -0.4961,-0.55859 -0.69922,-1.44531 -0.69922,-2.62109 l 0,-5.44532 -1.54688,0 0,-1.38281 1.54688,0 0,-1.83594 z m 0,0"
       id="path185"
       style="fill:#000000;fill-opacity:1;fill-rule:nonzero;stroke:none" />
    <path
       d="m 28.136719,332.33594 -4.230469,0 0,-1.52735 10.292969,0 0,1.52735 -4.25,0 0,12.375 -1.8125,0 z m 0,0"
       id="path187"
       style="fill:#000000;fill-opacity:1;fill-rule:nonzero;stroke:none" />
    <path
       d="m 35.394531,340.02734 c 0.04297,2.45703 1.589844,3.46485 3.40625,3.46485 1.296875,0 2.101563,-0.22657 2.761719,-0.49219 l 0.332031,1.27734 c -0.640625,0.28907 -1.753906,0.64063 -3.34375,0.64063 -3.050781,0 -4.90625,-2.04297 -4.90625,-5.03516 0,-3.03125 1.792969,-5.40234 4.699219,-5.40234 3.261719,0 4.105469,2.86719 4.105469,4.70312 0,0.3711 -0.01953,0.66016 -0.0625,0.86719 z m 5.300781,-1.29687 c 0.02344,-1.13672 -0.472656,-2.94922 -2.496093,-2.94922 -1.855469,0 -2.640625,1.69141 -2.785157,2.94922 z m 0,0"
       id="path189"
       style="fill:#000000;fill-opacity:1;fill-rule:nonzero;stroke:none" />
    <path
       d="m 51.8125,344.35937 c -0.476562,0.22657 -1.527344,0.57813 -2.867188,0.57813 -3.011718,0 -4.96875,-2.04297 -4.96875,-5.11328 0,-3.07422 2.101563,-5.32422 5.359376,-5.32422 1.074218,0 2.023437,0.26953 2.515624,0.53906 l -0.410156,1.37891 c -0.433594,-0.22656 -1.117187,-0.47266 -2.105468,-0.47266 -2.289063,0 -3.527344,1.71094 -3.527344,3.79297 0,2.3125 1.484375,3.73438 3.464844,3.73438 1.03125,0 1.710937,-0.2461 2.230468,-0.47657 z m 0,0"
       id="path191"
       style="fill:#000000;fill-opacity:1;fill-rule:nonzero;stroke:none" />
    <path
       d="m 53.9375,330.06641 1.816406,0 0,6.23046 0.03906,0 c 0.289062,-0.51562 0.742187,-0.99218 1.300781,-1.28125 0.535156,-0.32812 1.175781,-0.51562 1.855469,-0.51562 1.339843,0 3.484375,0.82812 3.484375,4.26953 l 0,5.94141 -1.8125,0 0,-5.73438 c 0,-1.6289 -0.597656,-2.96875 -2.3125,-2.96875 -1.175782,0 -2.082032,0.82422 -2.433594,1.8125 -0.101562,0.25 -0.121094,0.51563 -0.121094,0.86719 l 0,6.02344 -1.816406,0 z m 0,0"
       id="path193"
       style="fill:#000000;fill-opacity:1;fill-rule:nonzero;stroke:none" />
    <path
       d="m 65.382812,337.42969 c 0,-1.05078 -0.02344,-1.875 -0.08203,-2.70313 l 1.605469,0 0.105469,1.62891 0.04297,0 c 0.492187,-0.92578 1.648437,-1.85547 3.296874,-1.85547 1.382813,0 3.527344,0.82812 3.527344,4.25 l 0,5.96094 -1.8125,0 0,-5.75391 c 0,-1.60937 -0.597656,-2.97266 -2.3125,-2.97266 -1.175781,0 -2.101562,0.84766 -2.433594,1.85938 -0.08203,0.22656 -0.125,0.55469 -0.125,0.84375 l 0,6.02344 -1.8125,0 z m 0,0"
       id="path195"
       style="fill:#000000;fill-opacity:1;fill-rule:nonzero;stroke:none" />
    <path
       d="m 80.890625,344.9375 c -2.679687,0 -4.785156,-1.98047 -4.785156,-5.13672 0,-3.33984 2.207031,-5.30078 4.953125,-5.30078 2.867187,0 4.804687,2.08594 4.804687,5.11328 0,3.71484 -2.578125,5.32422 -4.949219,5.32422 z m 0.0625,-1.36328 c 1.734375,0 3.03125,-1.62891 3.03125,-3.89453 0,-1.69141 -0.84375,-3.81641 -2.988281,-3.81641 -2.125,0 -3.054688,1.98047 -3.054688,3.87891 0,2.1875 1.238282,3.83593 2.992188,3.83593 l 0.01953,0 z m 0,0"
       id="path197"
       style="fill:#000000;fill-opacity:1;fill-rule:nonzero;stroke:none" />
    <path
       d="m 88.152344,330.06641 1.8125,0 0,14.64453 -1.8125,0 z m 0,0"
       id="path199"
       style="fill:#000000;fill-opacity:1;fill-rule:nonzero;stroke:none" />
    <path
       d="m 97.039062,344.9375 c -2.679687,0 -4.785156,-1.98047 -4.785156,-5.13672 0,-3.33984 2.207032,-5.30078 4.949219,-5.30078 2.867185,0 4.808595,2.08594 4.808595,5.11328 0,3.71484 -2.578126,5.32422 -4.94922,5.32422 z m 0.0625,-1.36328 c 1.734376,0 3.031248,-1.62891 3.031248,-3.89453 0,-1.69141 -0.843748,-3.81641 -2.988279,-3.81641 -2.125,0 -3.054687,1.98047 -3.054687,3.87891 0,2.1875 1.238281,3.83593 2.992187,3.83593 l 0.01953,0 z m 0,0"
       id="path201"
       style="fill:#000000;fill-opacity:1;fill-rule:nonzero;stroke:none" />
    <path
       d="m 112.85938,343.24609 c 0,2.3086 -0.47657,3.69141 -1.42579,4.57813 -0.98828,0.88672 -2.39062,1.19531 -3.64843,1.19531 -1.19532,0 -2.51563,-0.28906 -3.32032,-0.82422 l 0.45313,-1.40234 c 0.66016,0.43359 1.69141,0.80469 2.92969,0.80469 1.85547,0 3.21484,-0.96875 3.21484,-3.50391 l 0,-1.09375 -0.0391,0 c -0.53516,0.92578 -1.62891,1.66797 -3.17578,1.66797 -2.47657,0 -4.25,-2.10156 -4.25,-4.88672 0,-3.38281 2.20703,-5.28125 4.51562,-5.28125 1.73438,0 2.66406,0.88672 3.11719,1.71484 l 0.0391,0 0.0625,-1.48437 1.60938,0 c -0.0625,0.69922 -0.082,1.5039 -0.082,2.71875 z m -1.81641,-4.59765 c 0,-0.28907 -0.0195,-0.5586 -0.10156,-0.80469 -0.33203,-1.07422 -1.19922,-1.94141 -2.53907,-1.94141 -1.73046,0 -2.96875,1.46485 -2.96875,3.79688 0,1.9375 1.01172,3.58984 2.94922,3.58984 1.13282,0 2.14453,-0.70312 2.51563,-1.8789 0.10547,-0.28907 0.14453,-0.64063 0.14453,-0.96875 z m 0,0"
       id="path203"
       style="fill:#000000;fill-opacity:1;fill-rule:nonzero;stroke:none" />
    <path
       d="m 116.48828,334.72656 2.16406,5.89844 c 0.25,0.66016 0.4961,1.44531 0.66016,2.04297 l 0.043,0 c 0.18359,-0.59766 0.39062,-1.35938 0.63672,-2.08203 l 1.98047,-5.85938 1.91797,0 -2.72266,7.11719 c -1.29688,3.42187 -2.18359,5.17578 -3.42188,6.26953 -0.90625,0.76172 -1.77343,1.07422 -2.22656,1.15625 l -0.45703,-1.52734 c 0.45703,-0.125 1.05469,-0.41407 1.58984,-0.88672 0.4961,-0.39063 1.09375,-1.09375 1.52735,-2.01953 0.082,-0.1875 0.14062,-0.3125 0.14062,-0.4336 0,-0.10547 -0.0391,-0.25 -0.14062,-0.45703 l -3.67188,-9.21875 z m 0,0"
       id="path205"
       style="fill:#000000;fill-opacity:1;fill-rule:nonzero;stroke:none" />
    <path
       d="m 131.77344,332.33594 -4.22656,0 0,-1.52735 10.29296,0 0,1.52735 -4.25,0 0,12.375 -1.8164,0 z m 0,0"
       id="path207"
       style="fill:#000000;fill-opacity:1;fill-rule:nonzero;stroke:none" />
    <path
       d="m 138.41797,337.84375 c 0,-1.17969 -0.0234,-2.1875 -0.082,-3.11719 l 1.58593,0 0.082,1.96094 0.0625,0 c 0.45312,-1.33984 1.5664,-2.1875 2.78515,-2.1875 0.1836,0 0.32813,0.0195 0.4961,0.0625 l 0,1.69141 c -0.20704,-0.0234 -0.39454,-0.043 -0.64063,-0.043 -1.28125,0 -2.1875,0.96875 -2.43359,2.30859 -0.043,0.26953 -0.0625,0.55859 -0.0625,0.86719 l 0,5.32031 -1.81641,0 z m 0,0"
       id="path209"
       style="fill:#000000;fill-opacity:1;fill-rule:nonzero;stroke:none" />
    <path
       d="m 146.08594,332.89062 c -0.67969,0 -1.13282,-0.53515 -1.13282,-1.17187 0,-0.64453 0.47657,-1.15625 1.17579,-1.15625 0.69921,0 1.15625,0.51562 1.15625,1.15625 0,0.63672 -0.45704,1.17187 -1.17579,1.17187 z m -0.86328,11.82032 0,-9.98438 1.8125,0 0,9.98438 z m 0,0"
       id="path211"
       style="fill:#000000;fill-opacity:1;fill-rule:nonzero;stroke:none" />
    <path
       d="m 158.58594,343.24609 c 0,2.3086 -0.47657,3.69141 -1.42578,4.57813 -0.98829,0.88672 -2.39063,1.19531 -3.64844,1.19531 -1.19531,0 -2.51563,-0.28906 -3.32031,-0.82422 l 0.45312,-1.40234 c 0.66016,0.43359 1.69141,0.80469 2.92969,0.80469 1.85547,0 3.21484,-0.96875 3.21484,-3.50391 l 0,-1.09375 -0.0391,0 c -0.53516,0.92578 -1.62891,1.66797 -3.17578,1.66797 -2.47656,0 -4.25,-2.10156 -4.25,-4.88672 0,-3.38281 2.20703,-5.28125 4.51953,-5.28125 1.73047,0 2.66016,0.88672 3.11328,1.71484 l 0.0391,0 0.0625,-1.48437 1.60938,0 c -0.0625,0.69922 -0.082,1.5039 -0.082,2.71875 z m -1.81641,-4.59765 c 0,-0.28907 -0.0195,-0.5586 -0.10156,-0.80469 -0.32813,-1.07422 -1.19531,-1.94141 -2.53516,-1.94141 -1.73437,0 -2.97265,1.46485 -2.97265,3.79688 0,1.9375 1.01171,3.58984 2.94921,3.58984 1.13282,0 2.14454,-0.70312 2.51563,-1.8789 0.10547,-0.28907 0.14453,-0.64063 0.14453,-0.96875 z m 0,0"
       id="path213"
       style="fill:#000000;fill-opacity:1;fill-rule:nonzero;stroke:none" />
    <path
       d="m 170.11328,343.24609 c 0,2.3086 -0.47266,3.69141 -1.42187,4.57813 -0.99219,0.88672 -2.39454,1.19531 -3.65235,1.19531 -1.19531,0 -2.51562,-0.28906 -3.32031,-0.82422 l 0.45703,-1.40234 c 0.66016,0.43359 1.6875,0.80469 2.92578,0.80469 1.85938,0 3.21875,-0.96875 3.21875,-3.50391 l 0,-1.09375 -0.043,0 c -0.53515,0.92578 -1.6289,1.66797 -3.17578,1.66797 -2.47265,0 -4.24609,-2.10156 -4.24609,-4.88672 0,-3.38281 2.20703,-5.28125 4.51562,-5.28125 1.73047,0 2.66016,0.88672 3.11328,1.71484 l 0.043,0 0.0625,-1.48437 1.60938,0 c -0.0625,0.69922 -0.0859,1.5039 -0.0859,2.71875 z m -1.8125,-4.59765 c 0,-0.28907 -0.0234,-0.5586 -0.10547,-0.80469 -0.32812,-1.07422 -1.19531,-1.94141 -2.53515,-1.94141 -1.73438,0 -2.97266,1.46485 -2.97266,3.79688 0,1.9375 1.01172,3.58984 2.94922,3.58984 1.13672,0 2.14453,-0.70312 2.51562,-1.8789 0.10547,-0.28907 0.14844,-0.64063 0.14844,-0.96875 z m 0,0"
       id="path215"
       style="fill:#000000;fill-opacity:1;fill-rule:nonzero;stroke:none" />
    <path
       d="m 174.13672,340.02734 c 0.0391,2.45703 1.58594,3.46485 3.40234,3.46485 1.29688,0 2.10156,-0.22657 2.76172,-0.49219 l 0.33203,1.27734 c -0.64062,0.28907 -1.7539,0.64063 -3.34375,0.64063 -3.05078,0 -4.90625,-2.04297 -4.90625,-5.03516 0,-3.03125 1.79297,-5.40234 4.70313,-5.40234 3.25781,0 4.10156,2.86719 4.10156,4.70312 0,0.3711 -0.0195,0.66016 -0.0625,0.86719 z m 5.30078,-1.29687 c 0.0195,-1.13672 -0.47656,-2.94922 -2.49609,-2.94922 -1.85547,0 -2.64063,1.69141 -2.78516,2.94922 z m 0,0"
       id="path217"
       style="fill:#000000;fill-opacity:1;fill-rule:nonzero;stroke:none" />
    <path
       d="m 183.45703,337.84375 c 0,-1.17969 -0.0195,-2.1875 -0.082,-3.11719 l 1.58984,0 0.082,1.96094 0.0625,0 c 0.45313,-1.33984 1.56641,-2.1875 2.78125,-2.1875 0.1875,0 0.33204,0.0195 0.4961,0.0625 l 0,1.69141 c -0.20703,-0.0234 -0.39063,-0.043 -0.64063,-0.043 -1.27734,0 -2.18359,0.96875 -2.43359,2.30859 -0.0391,0.26953 -0.0625,0.55859 -0.0625,0.86719 l 0,5.32031 -1.8125,0 z m 0,0"
       id="path219"
       style="fill:#000000;fill-opacity:1;fill-rule:nonzero;stroke:none" />
    <path
       d="m 6.097656,19.699219 0,336.640621 543.511714,0"
       id="path221"
       style="fill:none;stroke:#008cae;stroke-width:3;stroke-linecap:butt;stroke-linejoin:miter;stroke-miterlimit:4;stroke-opacity:1" />
    <path
       d="m 558.66016,356.33984 c -4.25782,1.58203 -9.54297,4.27735 -12.82032,7.13282 l 2.58203,-7.13282 -2.58203,-7.13281 c 3.27735,2.85547 8.5625,5.55078 12.82032,7.13281 z m 0,0"
       id="path223"
       style="fill:#008cae;fill-opacity:1;fill-rule:nonzero;stroke:none" />
    <path
       d="M 6.097656,9.105469 12.195312,24.03125 6.097656,20.488281 0,24.03125 z m 0,0"
       id="path225"
       style="fill:#008cae;fill-opacity:1;fill-rule:nonzero;stroke:none" />
    <path
       d="m 508.9375,331.69531 -3.30469,0 0,-2.23437 9.40625,0 0,2.23437 -3.34375,0 0,9.54688 -2.75781,0 z m 0,0"
       id="path227"
       style="fill:#008cae;fill-opacity:1;fill-rule:nonzero;stroke:none" />
    <path
       d="m 519.28906,329.46094 0,11.77734 -2.76172,0 0,-11.77734 z m 0,0"
       id="path229"
       style="fill:#008cae;fill-opacity:1;fill-rule:nonzero;stroke:none" />
    <path
       d="m 532.03516,336.73047 c -0.0547,-1.41406 -0.10547,-3.10938 -0.10547,-4.83985 l -0.0391,0 c -0.39843,1.50391 -0.90625,3.17969 -1.3789,4.5586 l -1.48828,4.59765 -2.16016,0 -1.30859,-4.54296 c -0.39844,-1.39844 -0.80078,-3.0586 -1.10938,-4.61329 l -0.0351,0 c -0.0547,1.58985 -0.12891,3.40625 -0.19922,4.875 l -0.23438,4.47657 -2.5625,0 0.78125,-11.78125 3.6875,0 1.19531,3.94922 c 0.40235,1.34765 0.76563,2.8125 1.03516,4.19531 l 0.0742,0 c 0.32812,-1.36328 0.74609,-2.90235 1.16016,-4.23047 l 1.29296,-3.91406 3.62891,0 0.65625,11.78125 -2.6875,0 z m 0,0"
       id="path231"
       style="fill:#008cae;fill-opacity:1;fill-rule:nonzero;stroke:none" />
    <path
       d="m 544.33203,336.25781 -4.50391,0 0,2.79688 5.03125,0 0,2.1875 -7.79296,0 0,-11.78125 7.53906,0 0,2.18359 -4.77735,0 0,2.44922 4.50391,0 z m 0,0"
       id="path233"
       style="fill:#008cae;fill-opacity:1;fill-rule:nonzero;stroke:none" />
    <path
       d="m 16.9375,13.6875 -4.316406,-13.46875 3.335937,0 1.636719,5.695312 c 0.460938,1.617188 0.878906,3.136719 1.199219,4.816407 l 0.0625,0 c 0.339843,-1.621094 0.757812,-3.21875 1.21875,-4.757813 l 1.714843,-5.753906 3.238282,0 -4.535156,13.46875 z m 0,0"
       id="path235"
       style="fill:#008cae;fill-opacity:1;fill-rule:nonzero;stroke:none" />
    <path
       d="m 29.523438,0.21875 0,13.46875 -3.039063,0 0,-13.46875 z m 0,0"
       id="path237"
       style="fill:#008cae;fill-opacity:1;fill-rule:nonzero;stroke:none" />
    <path
       d="m 32.257812,10.570312 c 0.800782,0.417969 2.078126,0.835938 3.378907,0.835938 1.394531,0 2.136719,-0.578125 2.136719,-1.476562 0,-0.820313 -0.640626,-1.320313 -2.257813,-1.878907 C 33.277344,7.253906 31.800781,6.015625 31.800781,4.035156 31.800781,1.738281 33.738281,0 36.894531,0 c 1.539063,0 2.636719,0.300781 3.4375,0.679688 l -0.679687,2.4375 c -0.519532,-0.261719 -1.5,-0.640626 -2.796875,-0.640626 -1.320313,0 -1.960938,0.621094 -1.960938,1.300782 0,0.859375 0.742188,1.238281 2.5,1.917968 2.375,0.878907 3.476563,2.117188 3.476563,4.035157 0,2.257812 -1.71875,4.175781 -5.414063,4.175781 -1.539062,0 -3.058593,-0.417969 -3.816406,-0.839844 z m 0,0"
       id="path239"
       style="fill:#008cae;fill-opacity:1;fill-rule:nonzero;stroke:none" />
    <path
       d="m 46.003906,0.21875 0,13.46875 -3.035156,0 0,-13.46875 z m 0,0"
       id="path241"
       style="fill:#008cae;fill-opacity:1;fill-rule:nonzero;stroke:none" />
    <path
       d="m 48.640625,0.417969 c 0.800781,-0.160157 2.398437,-0.300781 3.9375,-0.300781 1.855469,0 2.996094,0.183593 3.976563,0.761718 0.9375,0.5 1.597656,1.417969 1.597656,2.65625 0,1.179688 -0.699219,2.277344 -2.199219,2.855469 l 0,0.042969 c 1.539063,0.398437 2.675781,1.578125 2.675781,3.3125 0,1.242187 -0.558594,2.199218 -1.398437,2.859375 -0.976563,0.777343 -2.617188,1.21875 -5.292969,1.21875 -1.5,0 -2.617188,-0.101563 -3.296875,-0.199219 z m 3.015625,5.136719 1,0 c 1.617188,0 2.457031,-0.660157 2.457031,-1.660157 0,-1.015625 -0.777343,-1.558593 -2.15625,-1.558593 -0.679687,0 -1.058593,0.042968 -1.300781,0.101562 z m 0,5.972656 c 0.300781,0.0625 0.660156,0.0625 1.179688,0.0625 1.378906,0 2.597656,-0.542969 2.597656,-1.960938 0,-1.359375 -1.21875,-1.898437 -2.738282,-1.898437 l -1.039062,0 z m 0,0"
       id="path243"
       style="fill:#008cae;fill-opacity:1;fill-rule:nonzero;stroke:none" />
    <path
       d="m 63.765625,0.21875 0,13.46875 -3.039063,0 0,-13.46875 z m 0,0"
       id="path245"
       style="fill:#008cae;fill-opacity:1;fill-rule:nonzero;stroke:none" />
    <path
       d="m 66.421875,0.21875 3.039063,0 0,10.910156 5.351562,0 0,2.558594 -8.390625,0 z m 0,0"
       id="path247"
       style="fill:#008cae;fill-opacity:1;fill-rule:nonzero;stroke:none" />
    <path
       d="m 79.667969,0.21875 0,13.46875 -3.035157,0 0,-13.46875 z m 0,0"
       id="path249"
       style="fill:#008cae;fill-opacity:1;fill-rule:nonzero;stroke:none" />
    <path
       d="m 84.921875,2.777344 -3.636719,0 0,-2.558594 10.351563,0 0,2.558594 -3.675781,0 0,10.910156 -3.039063,0 z m 0,0"
       id="path251"
       style="fill:#008cae;fill-opacity:1;fill-rule:nonzero;stroke:none" />
    <path
       d="m 96.984375,13.6875 0,-5.515625 -4.253906,-7.953125 3.496093,0 1.359376,3.238281 c 0.417968,0.980469 0.71875,1.699219 1.035156,2.578125 l 0.04297,0 c 0.296874,-0.839844 0.617186,-1.621094 1.01953,-2.578125 l 1.355466,-3.238281 3.41797,0 -4.43359,7.851562 0,5.617188 z m 0,0"
       id="path253"
       style="fill:#008cae;fill-opacity:1;fill-rule:nonzero;stroke:none" />
  </g>
</svg>
